<?xml version="1.0" encoding="UTF-8"?>
<!DOCTYPE svg PUBLIC "-//W3C//DTD SVG 1.1//EN" "http://www.w3.org/Graphics/SVG/1.1/DTD/svg11.dtd">
<!-- Creator: CorelDRAW X7 -->
<svg xmlns="http://www.w3.org/2000/svg" xml:space="preserve" width="100%" height="100%" version="1.1" style="shape-rendering:geometricPrecision; text-rendering:geometricPrecision; image-rendering:optimizeQuality; fill-rule:evenodd; clip-rule:evenodd"
viewBox="0 0 21000 21000"
 xmlns:xlink="http://www.w3.org/1999/xlink"
 enable-background="new 455 254 50 52">
 <defs>
  <style type="text/css">
   <![CDATA[
    .fil2 {fill:#1DA4B4}
    .fil8 {fill:#4064A5}
    .fil4 {fill:#934C94}
    .fil7 {fill:#99C320}
    .fil1 {fill:#C6D114}
    .fil10 {fill:#E42383}
    .fil0 {fill:#E6538D}
    .fil6 {fill:#EA7CA5}
    .fil9 {fill:#F09511}
    .fil3 {fill:#F5B90A}
    .fil5 {fill:#F9EC17}
   ]]>
  </style>
 </defs>
 <g id="Layer_x0020_1">
  <metadata id="CorelCorpID_0Corel-Layer"/>
  <g id="_369093112">
   <path class="fil0" d="M2949 6795l762 2642c-309,0 -784,-55 -1027,44l165 520 1305 0c88,-199 176,-531 254,-741l1558 -4620c89,-276 199,-486 265,-773l-1503 0c-143,596 -840,2431 -1061,3205 -66,221 -44,320 -188,431 -22,-210 -132,-575 -210,-730l-320 22z"/>
   <path class="fil1" d="M16300 16444l-751 0 475 -1392 741 0 44 0c11,-265 387,-1017 409,-1360 309,232 -11,542 431,575l-11 -33 -487 -1581 1316 -22 -509 -1536 -1359 0 -1028 3039c-177,531 -343,973 -520,1504 -110,331 -475,1293 -486,1591l1459 0c88,-188 221,-541 276,-785z"/>
   <path class="fil2" d="M14642 9216l-718 0 475 -1393 741 0 22 0c44,-210 387,-1260 519,-1359 23,221 111,365 155,575l155 0c-22,-420 -376,-1161 -464,-1625l1304 0 -11 -44c-89,-210 -166,-509 -243,-730 -89,-265 -155,-552 -266,-773l-1359 0c-22,265 -1326,3956 -1525,4553 -100,299 -487,1338 -498,1581l1459 0c78,-155 243,-575 254,-785z"/>
   <path class="fil1" d="M13084 6972l-44 0c-243,-11 -862,22 -1039,-11 -199,-33 -133,-77 -177,-331 -22,-133 -66,-243 -99,-365l-45 11 -154 44c33,299 309,851 -155,1492 -321,453 -575,586 -1194,730l-11 -464 0 -45 -1182 11 0 -3691 -210 -22 0 5670c1470,0 2133,22 3039,-608 321,-221 685,-608 862,-951 409,-807 265,-773 409,-1470z"/>
   <path class="fil3" d="M4430 15870l33 -1061 1172 -11 0 -2244c475,0 917,331 1016,807 45,243 -44,353 255,320 121,-342 -133,-608 -255,-818 111,-199 664,-718 863,-829l0 -55 -277 -254c-99,-77 -166,-144 -287,-221 -221,-144 -442,-232 -730,-321 -132,-44 -298,-66 -464,-88l-1580 0 0 4786 254 -11z"/>
   <path class="fil0" d="M11139 15870l55 0 -11 -1061 1149 0 0 -22 0 -2233c642,0 1084,519 1095,1138l210 0 44 0c-44,-508 -133,-497 -310,-829 199,-243 597,-596 851,-829l0 -55c-287,-320 -806,-674 -1293,-796 -188,-44 -409,-66 -641,-88l-1359 0 0 4786 210 -11z"/>
   <path class="fil2" d="M17638 14234l11 33c55,177 166,619 243,785l-1083 0 -44 0 -465 1392 2067 11c11,210 177,619 254,774l1459 0c-22,-232 -596,-1956 -707,-2310 -144,-398 -232,-729 -365,-1138 -132,-387 -298,-796 -387,-1172l-154 22 486 1603 -1315 0z"/>
   <path class="fil4" d="M16068 7039c-33,254 133,530 188,773l-1094 11 -22 0 -464 1393 2044 0 255 785 1459 0c0,-266 -255,-918 -343,-1216 -122,-420 -265,-763 -376,-1172l-652 -2055c-66,-177 -33,-166 -243,-188l11 44 497 1591 -1260 34z"/>
   <path class="fil4" d="M14222 11979l0 55c321,266 664,1017 608,1647l-1149 11 -44 0c0,221 -11,332 -89,487 -66,154 -154,265 -276,353 -310,232 -409,255 -940,255l0 22 -11 1061 -1127 0 -55 0c0,1580 -122,1370 519,1359 1150,-11 940,210 940,-984 1558,0 2818,-1591 2442,-3116 -199,-807 -453,-907 -674,-1249l-144 99z"/>
   <path class="fil0" d="M7514 11979l0 55c298,321 674,995 585,1636l-1193 11c66,376 -144,663 -354,829 -276,243 -420,265 -917,288l-23 1061 -1182 11c132,1392 -310,1370 530,1359 1150,-11 929,210 929,-984 1415,0 2796,-1425 2431,-3105 -176,-829 -420,-907 -663,-1260l-143 99z"/>
   <path class="fil3" d="M8984 4353l1171 0 11 3680 0 45 221 0 0 -2753c343,0 575,133 796,288 276,210 354,342 497,663l45 -11 1083 -453c166,298 254,773 232,1160l44 0 210 11c0,-1083 -586,-2000 -1216,-2475 -740,-553 -1293,-630 -2277,-641l-817 0 0 486z"/>
   <path class="fil3" d="M2661 9481c-77,-630 -806,-2232 -784,-2674l1072 -12c-22,-210 -144,-519 -210,-740 -100,-365 -586,-1923 -608,-2188l-1514 0 884 2818c144,486 298,895 453,1415 111,375 332,1083 486,1381l221 0z"/>
   <polygon class="fil5" points="10166,8033 10155,4353 8984,4353 8984,8044 "/>
   <path class="fil1" d="M6850 8122l45 0 0 -1846c364,0 873,55 1193,-44l11 -2365 -1260 0c-353,66 -199,342 -199,1403 0,951 0,1901 0,2863l210 -11z"/>
   <polygon class="fil3" points="9061,15361 9094,13515 10244,13515 10255,11095 8851,11095 8851,15361 "/>
   <path class="fil2" d="M6895 8122l-45 0c0,2243 -221,1879 785,1879 122,0 299,11 420,0 221,0 232,11 254,-210l0 -3537 -221 -22 0 1890 -1193 0z"/>
   <path class="fil1" d="M9061 15361l0 1868c1680,0 1404,310 1404,-1138 0,-873 0,-1736 0,-2598l-221 22 0 1846 -1183 0z"/>
   <path class="fil6" d="M2661 9481l23 0c243,-99 718,-44 1027,-44l-762 -2642 -1072 12c-22,442 707,2044 784,2674z"/>
   <path class="fil7" d="M6895 8122l1193 0 0 -1890c-320,99 -829,44 -1193,44l0 1846z"/>
   <polygon class="fil5" points="9061,15361 10244,15361 10244,13515 9094,13515 "/>
   <path class="fil8" d="M15991 7039l77 0 1260 -34 -497 -1591 -1304 0c88,464 442,1205 464,1625z"/>
   <polygon class="fil7" points="17638,14234 18953,14234 18467,12631 17151,12653 "/>
   <path class="fil9" d="M6906 13681l1193 -11c89,-641 -287,-1315 -585,-1636 -199,111 -752,630 -863,829 122,210 376,476 255,818z"/>
   <path class="fil10" d="M13681 13692l1149 -11c56,-630 -287,-1381 -608,-1647 -254,233 -652,586 -851,829 177,332 266,321 310,829z"/>
   <polygon class="fil9" points="4430,15870 5612,15859 5635,14798 4463,14809 "/>
   <polygon class="fil10" points="11194,15870 12321,15870 12332,14809 11183,14809 "/>
   <path class="fil5" d="M11725 6265c33,122 77,232 99,365 44,254 -22,298 177,331 177,33 796,0 1039,11 22,-387 -66,-862 -232,-1160l-1083 453z"/>
   <polygon class="fil8" points="14642,9216 14676,9216 15140,7823 14399,7823 13924,9216 "/>
   <polygon class="fil7" points="16300,16444 16765,15052 16024,15052 15549,16444 "/>
  </g>
 </g>
</svg>
