<?xml version="1.0" encoding="UTF-8"?>
<!DOCTYPE svg PUBLIC "-//W3C//DTD SVG 1.1//EN" "http://www.w3.org/Graphics/SVG/1.1/DTD/svg11.dtd">
<!-- Creator: CorelDRAW X7 -->
<svg xmlns="http://www.w3.org/2000/svg" xml:space="preserve" width="100%" height="100%" version="1.1" style="shape-rendering:geometricPrecision; text-rendering:geometricPrecision; image-rendering:optimizeQuality; fill-rule:evenodd; clip-rule:evenodd"
viewBox="0 0 21000 29700"
 xmlns:xlink="http://www.w3.org/1999/xlink"
 enable-background="new 455 254 50 52">
 <defs>
  <style type="text/css">
   <![CDATA[
    .fil2 {fill:#1DA4B4}
    .fil8 {fill:#4064A5}
    .fil4 {fill:#934C94}
    .fil7 {fill:#99C320}
    .fil1 {fill:#C6D114}
    .fil10 {fill:#E42383}
    .fil0 {fill:#E6538D}
    .fil6 {fill:#EA7CA5}
    .fil9 {fill:#F09511}
    .fil3 {fill:#F5B90A}
    .fil5 {fill:#F9EC17}
   ]]>
  </style>
 </defs>
 <g id="Layer_x0020_1">
  <metadata id="CorelCorpID_0Corel-Layer"/>
  <g id="_369093112">
   <path class="fil0" d="M2717 11022l787 2728c-319,0 -810,-57 -1061,46l171 536 1347 0c91,-205 183,-547 263,-764l1609 -4771c91,-286 205,-503 274,-799l-1552 0c-149,616 -868,2511 -1096,3310 -69,228 -46,331 -194,445 -23,-217 -137,-594 -217,-753l-331 22z"/>
   <path class="fil1" d="M16505 20987l-776 0 491 -1438 764 0 46 0c11,-274 399,-1051 422,-1404 320,239 -11,559 445,593l-11 -34 -502 -1632 1358 -23 -525 -1587 -1404 0 -1061 3139c-183,548 -354,1005 -537,1552 -114,343 -491,1336 -502,1644l1507 0c91,-194 228,-559 285,-810z"/>
   <path class="fil2" d="M14793 13522l-742 0 491 -1438 764 0 23 0c46,-217 400,-1301 537,-1404 23,228 114,377 159,593l160 0c-23,-433 -388,-1198 -479,-1677l1347 0 -12 -46c-91,-217 -171,-525 -251,-753 -91,-274 -160,-571 -274,-799l-1404 0c-22,274 -1369,4086 -1575,4702 -102,308 -502,1381 -513,1632l1506 0c80,-159 251,-593 263,-810z"/>
   <path class="fil1" d="M13183 11205l-45 0c-251,-11 -890,23 -1073,-11 -206,-35 -137,-80 -183,-343 -23,-137 -68,-251 -102,-376l-46 11 -160 46c34,308 320,878 -160,1540 -331,468 -593,605 -1232,754l-12 -480 0 -45 -1221 11 0 -3812 -217 -23 0 5855c1518,0 2203,23 3139,-627 331,-229 708,-628 890,-982 422,-833 274,-799 422,-1518z"/>
   <path class="fil3" d="M4246 20393l35 -1096 1209 -11 0 -2317c491,0 948,342 1051,833 45,251 -46,365 262,331 126,-354 -137,-628 -262,-844 114,-206 684,-742 890,-856l0 -58 -286 -262c-102,-80 -171,-148 -296,-228 -229,-149 -457,-240 -754,-331 -137,-46 -308,-69 -479,-92l-1632 0 0 4943 262 -12z"/>
   <path class="fil0" d="M11175 20393l57 0 -12 -1096 1187 0 0 -22 0 -2306c662,0 1119,536 1130,1176l217 0 46 0c-46,-525 -137,-514 -320,-856 206,-252 617,-617 879,-856l0 -58c-297,-331 -833,-696 -1335,-821 -194,-46 -423,-69 -662,-92l-1404 0 0 4943 217 -12z"/>
   <path class="fil2" d="M17886 18704l11 34c57,183 172,639 251,811l-1118 0 -46 0 -479 1438 2134 11c12,217 183,639 263,799l1506 0c-22,-240 -616,-2020 -730,-2385 -148,-411 -240,-754 -377,-1176 -137,-400 -308,-822 -399,-1210l-160 23 502 1655 -1358 0z"/>
   <path class="fil4" d="M16265 11273c-34,263 137,548 194,799l-1130 12 -23 0 -479 1438 2112 0 262 810 1507 0c0,-274 -263,-947 -354,-1255 -126,-434 -274,-788 -388,-1210l-674 -2123c-68,-183 -34,-171 -251,-194l12 46 513 1643 -1301 34z"/>
   <path class="fil4" d="M14359 16375l0 58c331,273 685,1050 628,1700l-1187 12 -46 0c0,228 -11,342 -91,502 -69,160 -160,274 -286,365 -319,240 -422,263 -970,263l0 22 -11 1096 -1164 0 -57 0c0,1632 -126,1415 536,1404 1187,-11 970,217 970,-1016 1610,0 2911,-1643 2523,-3218 -206,-834 -468,-936 -697,-1290l-148 102z"/>
   <path class="fil0" d="M7431 16375l0 58c308,331 696,1027 605,1689l-1233 11c69,388 -148,685 -365,856 -286,251 -434,274 -948,297l-22 1096 -1222 11c137,1438 -319,1415 548,1404 1187,-11 959,217 959,-1016 1461,0 2888,-1472 2511,-3207 -183,-856 -434,-936 -685,-1301l-148 102z"/>
   <path class="fil3" d="M8949 8500l1210 0 11 3801 0 45 228 0 0 -2842c354,0 594,137 822,297 286,217 365,354 514,685l46 -11 1118 -468c171,308 263,799 240,1198l45 0 217 11c0,-1118 -605,-2066 -1255,-2556 -765,-571 -1336,-651 -2351,-662l-845 0 0 502z"/>
   <path class="fil3" d="M2420 13796c-80,-651 -833,-2306 -810,-2762l1107 -12c-23,-216 -148,-536 -217,-764 -103,-377 -605,-1986 -628,-2260l-1563 0 913 2910c148,502 308,925 468,1461 114,388 342,1119 502,1427l228 0z"/>
   <polygon class="fil5" points="10170,12301 10159,8500 8949,8500 8949,12312 "/>
   <path class="fil1" d="M6746 12392l46 0 0 -1906c376,0 901,57 1232,-46l12 -2442 -1301 0c-366,68 -206,354 -206,1449 0,982 0,1963 0,2956l217 -11z"/>
   <polygon class="fil3" points="9029,19868 9063,17962 10250,17962 10261,15462 8812,15462 8812,19868 "/>
   <path class="fil2" d="M6792 12392l-46 0c0,2317 -228,1940 810,1940 126,0 309,12 434,0 228,0 240,12 263,-216l0 -3653 -229 -23 0 1952 -1232 0z"/>
   <path class="fil1" d="M9029 19868l0 1929c1735,0 1449,320 1449,-1176 0,-901 0,-1792 0,-2682l-228 23 0 1906 -1221 0z"/>
   <path class="fil6" d="M2420 13796l23 0c251,-103 742,-46 1061,-46l-787 -2728 -1107 12c-23,456 730,2111 810,2762z"/>
   <path class="fil7" d="M6792 12392l1232 0 0 -1952c-331,103 -856,46 -1232,46l0 1906z"/>
   <polygon class="fil5" points="9029,19868 10250,19868 10250,17962 9063,17962 "/>
   <path class="fil8" d="M16185 11273l80 0 1301 -34 -513 -1643 -1347 0c91,479 456,1244 479,1677z"/>
   <polygon class="fil7" points="17886,18704 19244,18704 18742,17049 17384,17072 "/>
   <path class="fil9" d="M6803 18133l1233 -11c91,-662 -297,-1358 -605,-1689 -206,114 -776,650 -890,856 125,216 388,490 262,844z"/>
   <path class="fil10" d="M13800 18145l1187 -12c57,-650 -297,-1427 -628,-1700 -262,239 -673,604 -879,856 183,342 274,331 320,856z"/>
   <polygon class="fil9" points="4246,20393 5468,20382 5490,19286 4281,19297 "/>
   <polygon class="fil10" points="11232,20393 12396,20393 12407,19297 11220,19297 "/>
   <path class="fil5" d="M11780 10475c34,125 79,239 102,376 46,263 -23,308 183,343 183,34 822,0 1073,11 23,-399 -69,-890 -240,-1198l-1118 468z"/>
   <polygon class="fil8" points="14793,13522 14827,13522 15306,12084 14542,12084 14051,13522 "/>
   <polygon class="fil7" points="16505,20987 16984,19549 16220,19549 15729,20987 "/>
  </g>
 </g>
</svg>
