<?xml version="1.0" encoding="UTF-8"?>
<!DOCTYPE svg PUBLIC "-//W3C//DTD SVG 1.1//EN" "http://www.w3.org/Graphics/SVG/1.1/DTD/svg11.dtd">
<!-- Creator: CorelDRAW X7 -->
<svg xmlns="http://www.w3.org/2000/svg" xml:space="preserve" width="100%" height="100%" version="1.1" style="shape-rendering:geometricPrecision; text-rendering:geometricPrecision; image-rendering:optimizeQuality; fill-rule:evenodd; clip-rule:evenodd"
viewBox="0 0 21000 29700"
 xmlns:xlink="http://www.w3.org/1999/xlink">
 <defs>
  <style type="text/css">
   <![CDATA[
    .fil1 {fill:#ED3237}
    .fil0 {fill:#2082A0}
   ]]>
  </style>
 </defs>
 <g id="Layer_x0020_1">
  <metadata id="CorelCorpID_0Corel-Layer"/>
  <g id="_221780928">
   <path class="fil0" d="M20977 5940c23,0 23,-1980 23,-1980 -47,0 -23,1980 -23,1980z"/>
   <polygon class="fil0" points="20463,8910 20463,8910 20393,9900 "/>
   <path class="fil0" d="M19997 8910c46,2970 163,0 256,990l0 0 47 -1980c-117,0 -233,1980 -303,990z"/>
   <path class="fil0" d="M19740 2970c23,990 -47,990 70,0 0,0 0,0 0,0 -47,0 -47,0 -70,0z"/>
   <path class="fil0" d="M19787 2970c46,0 -47,-990 0,0l0 0z"/>
   <path class="fil0" d="M19553 3960l70 -990c-23,-990 -70,-990 -46,-990 -94,0 -70,990 -24,1980z"/>
   <path class="fil0" d="M19483 5940l24 0c0,-990 0,-990 -24,0z"/>
   <path class="fil0" d="M19600 4950l-70 990c0,0 0,990 23,0 0,0 0,-990 47,-990z"/>
   <path class="fil0" d="M19623 4950c47,990 94,990 24,1980 140,0 116,-1980 -24,-1980z"/>
   <path class="fil0" d="M19950 11880l47 990 46 -990c0,0 -93,-990 -93,0z"/>
   <path class="fil0" d="M19133 1980c0,990 24,1980 24,1980l46 -990c-23,990 -70,0 -70,-990z"/>
   <path class="fil0" d="M19157 4950l-70 990c70,0 70,-990 70,-990z"/>
   <polygon class="fil0" points="19460,8910 19600,6930 19437,8910 "/>
   <polygon class="fil0" points="18853,1980 18900,990 18830,2970 "/>
   <path class="fil0" d="M18667 2970c23,-990 -47,-1980 0,-2970 -47,0 -94,990 -140,1980 46,0 93,0 140,990z"/>
   <path class="fil0" d="M18457 2970c23,0 46,-990 70,-990 -24,0 -47,990 -70,990z"/>
   <path class="fil0" d="M18970 4950c0,0 -23,-990 -47,-1980l24 1980c0,0 0,0 23,0z"/>
   <path class="fil0" d="M18923 5940l0 0c-23,0 -46,0 -70,0 24,-990 47,-990 70,0z"/>
   <path class="fil0" d="M18970 5940c0,0 0,-990 0,0 0,0 0,0 0,0z"/>
   <path class="fil0" d="M19273 6930c-46,990 -140,1980 -46,2970 46,0 -24,-990 46,-2970z"/>
   <path class="fil0" d="M18993 7920l70 0c0,0 -23,-990 0,-1980l-70 1980z"/>
   <polygon class="fil0" points="18970,7920 18993,7920 18970,6930 "/>
   <path class="fil0" d="M18597 4950c-24,990 -70,990 -117,990 47,0 93,990 140,0 0,0 23,-990 -23,-990z"/>
   <path class="fil0" d="M18760 4950c0,0 0,0 0,0 0,990 0,990 0,0z"/>
   <path class="fil0" d="M18060 5940c23,0 23,0 0,0 23,0 23,0 0,0l0 0z"/>
   <path class="fil0" d="M18620 6930c23,0 47,0 70,-990 -23,0 -47,0 -70,990 0,0 0,0 0,0z"/>
   <path class="fil0" d="M18340 3960c23,0 47,990 47,990 0,-990 -47,-990 -47,-990z"/>
   <path class="fil0" d="M18737 4950c0,0 0,0 0,0 0,0 0,0 0,0z"/>
   <path class="fil0" d="M18737 4950c-24,0 -24,990 -47,990 23,0 47,0 47,-990 0,0 0,0 0,0z"/>
   <path class="fil0" d="M17943 15840c0,-1980 94,-2970 164,-990 70,-990 23,-5940 -47,-8910 0,990 0,990 -70,1980 23,990 163,1980 117,2970 -94,990 -94,0 -140,-990 46,1980 -140,2970 -117,5940l93 -990c0,0 -23,990 0,990z"/>
   <path class="fil0" d="M18223 5940l24 0c-47,0 -70,-990 -117,-1980 -47,990 -70,990 -70,1980l163 0 0 0z"/>
   <path class="fil0" d="M18387 5940c-24,1980 -94,1980 -47,3960 93,0 70,-990 117,-1980 -140,990 46,-990 -70,-1980 23,0 46,0 93,0 -23,0 -47,0 -70,-990 0,0 0,0 -23,990l0 0c23,-990 23,-990 0,0 23,-990 23,-990 0,0 23,-990 23,-990 0,0 23,0 23,0 0,0 -24,0 0,0 0,0 23,-990 23,-990 0,0 23,-990 23,-990 0,0l-140 0c46,0 70,0 140,0z"/>
   <path class="fil0" d="M19157 13860c0,0 0,0 0,0 -24,0 -24,0 0,0z"/>
   <path class="fil0" d="M19087 12870c0,0 23,-990 46,-990 24,990 0,990 0,990 24,0 70,-990 0,-1980l0 0c-70,-990 -140,-2970 -116,-2970 23,2970 23,3960 70,4950z"/>
   <path class="fil0" d="M18737 9900l-117 990 70 990 0 -990c47,990 47,0 47,-990z"/>
   <polygon class="fil0" points="18060,4950 18083,2970 17990,5940 "/>
   <polygon class="fil0" points="17897,4950 17897,3960 17850,4950 "/>
   <path class="fil0" d="M8703 23760l-46 0c46,990 46,0 46,0z"/>
   <path class="fil0" d="M8983 23760l0 0c0,0 -23,0 0,0z"/>
   <path class="fil0" d="M13907 4950c-47,-990 -117,-3960 -117,-1980l23 1980c24,0 70,0 94,0z"/>
   <path class="fil0" d="M11153 14850c24,990 24,990 0,0 24,0 47,-990 47,-990 0,990 -23,990 -47,990z"/>
   <path class="fil0" d="M11130 21780l-70 -990c0,990 23,990 70,990z"/>
   <path class="fil0" d="M7257 25740l-47 1980c70,0 47,-990 47,-1980z"/>
   <path class="fil0" d="M16217 5940c-47,-990 -94,-990 -117,-990 70,990 117,1980 117,990z"/>
   <path class="fil0" d="M8820 5940c-23,0 -23,990 -23,990 23,0 23,0 23,-990z"/>
   <path class="fil0" d="M15983 4950c0,0 24,0 24,0 23,0 70,-990 116,0 -46,-990 -93,-990 -140,0z"/>
   <path class="fil0" d="M1983 24750c0,0 0,0 0,0 -23,0 0,0 0,0z"/>
   <path class="fil0" d="M443 7920c24,0 47,0 70,0 -23,-990 -23,-990 -70,0z"/>
   <path class="fil0" d="M17243 3960c24,0 0,0 0,0l0 0z"/>
   <path class="fil0" d="M17407 10890c0,0 -24,990 0,0 0,0 0,0 0,0z"/>
   <path class="fil0" d="M15633 14850c0,0 0,0 0,0 0,990 0,990 0,0z"/>
   <path class="fil0" d="M17290 4950c-23,0 -23,0 -47,-990 0,990 24,990 47,990z"/>
   <path class="fil0" d="M17290 3960c23,0 23,0 23,0 0,0 0,0 -23,0z"/>
   <path class="fil0" d="M17197 3960c23,0 46,0 46,0 0,0 0,0 0,0 -23,0 -23,0 -46,0z"/>
   <path class="fil0" d="M4807 19800c0,0 0,0 0,0 -47,990 -24,990 0,0z"/>
   <path class="fil0" d="M12997 22770c0,0 0,0 0,0 0,0 0,0 0,0l0 0z"/>
   <path class="fil0" d="M12880 23760c47,-1980 93,-1980 117,-990l-47 -4950 -70 5940z"/>
   <path class="fil0" d="M8073 24750l94 990c-117,1980 -187,1980 -94,3960 24,-4950 327,-990 350,-5940l47 990c-23,0 -23,0 -47,0 117,2970 94,-3960 234,-2970 46,0 93,990 46,1980l117 -990c23,0 23,990 0,990l163 0 0 0c24,-990 70,-1980 117,-2970 47,990 -23,990 0,990l93 -990c47,990 -46,2970 -93,2970 93,4950 70,-990 257,1980l-94 990c47,2970 117,1980 234,3960 -24,-990 -210,-4950 -94,-5940 24,0 70,990 117,0 0,1980 47,990 117,990l0 1980c70,-990 70,-1980 116,-2970 70,0 94,1980 117,3960 140,0 -93,-2970 70,-3960 117,990 187,0 303,-1980 70,990 -23,1980 24,1980l70 -1980c23,0 0,990 0,990 46,-990 0,-1980 93,-2970 23,-2970 187,3960 303,990 24,990 -23,1980 0,1980 140,-1980 140,-990 257,-3960l117 1980c-70,-1980 23,-3960 116,-5940 -23,-990 -46,-1980 -70,-1980l140 -990c24,0 0,990 -23,1980 0,0 23,0 23,-990 47,990 24,1980 0,3960 -23,0 -23,-990 -46,-1980 -24,1980 -70,2970 -70,4950 0,0 23,-990 46,-990 0,0 -23,990 0,990 0,0 24,0 47,-990l23 2970 0 -990 187 1980c140,-2970 233,-6930 443,-7920 -46,1980 0,2970 -23,5940 -47,-2970 -163,990 -257,990 47,0 47,990 24,1980l186 -1980c0,1980 47,990 94,1980 -94,-4950 93,-3960 163,-4950 0,990 -23,2970 -117,1980 94,2970 140,-4950 234,-1980 -24,0 -47,0 -47,0 47,-990 187,0 163,990l-23 0c163,0 467,0 490,-2970 0,0 -23,3960 -23,4950l280 -10890c-24,2970 70,9900 -70,10890 46,0 70,990 163,0 -23,0 -70,-3960 -23,-3960 93,2970 70,1980 186,3960 -46,-990 0,-4950 70,-4950 0,990 0,3960 -23,4950l140 -3960c-47,990 0,3960 23,4950 -23,-990 117,0 164,0l-70 -990c163,990 163,-5940 326,-5940 -23,990 -46,5940 24,5940 46,-1980 163,-10890 326,-11880l24 990 116 -990c-70,2970 -256,9900 -373,12870 70,990 23,1980 117,990 23,990 -47,1980 -70,1980l210 990c0,-2970 163,-2970 163,-4950l-233 2970c0,-2970 140,-6930 280,-6930 46,990 -24,4950 -24,5940 24,-990 140,-1980 164,-990l-70 990c93,990 140,-2970 233,-990 47,0 117,2970 117,1980 -47,-4950 -70,-13860 -24,-15840 24,0 187,2970 234,3960 46,1980 -94,5940 -47,7920 0,-990 47,-1980 47,-1980 46,0 0,1980 70,1980 23,-2970 163,0 46,-1980 70,-990 94,990 187,0 -23,-1980 93,-5940 163,-6930 0,990 24,1980 24,1980 163,0 256,990 396,990 24,990 94,990 47,2970 23,0 47,-990 93,-990 94,1980 -93,0 -46,2970 0,-1980 116,-1980 186,-2970 -23,-1980 -163,0 -210,990 0,-2970 117,-6930 280,-7920 117,-990 47,1980 70,1980 234,990 210,-5940 397,-2970 70,1980 0,3960 23,5940 -93,990 -163,-990 -233,-990l93 990c-23,990 -93,990 -140,990 70,1980 397,0 584,1980 23,-990 93,-990 70,-1980l-47 0c-47,-1980 117,-1980 47,-2970 23,-3960 116,-5940 233,-4950l0 2970c0,-990 -70,-990 -93,-990 46,-990 163,2970 210,0l-70 -990c70,-990 163,-3960 280,-2970 -47,-1980 -24,0 -94,-1980 70,2970 -256,0 -140,2970 -70,-2970 -116,-990 -210,-3960 0,990 24,1980 -46,990 0,0 -24,990 -24,990 0,0 0,0 0,0 0,0 0,0 0,0 0,0 0,0 0,0 24,0 24,990 47,990 -47,1980 -163,1980 -210,2970 -47,0 23,-990 0,-1980l-70 990c0,-1980 -117,-2970 -23,-3960l-94 0c-70,-990 -140,-990 -186,-990 -47,0 -117,1980 -70,990l-164 990 0 0c-163,0 -326,2970 -513,0 -47,0 -117,990 -187,0l-23 -1980c-70,990 -210,-1980 -233,0 -70,-3960 -327,-990 -444,-1980l0 1980c-93,0 -163,0 -256,990l0 1980c-94,990 -234,-990 -374,-990 0,-990 47,0 70,0 -163,-3960 -350,2970 -513,0 -47,990 -70,0 -93,0 0,0 0,0 0,0 0,0 0,0 -24,0 -23,0 -23,-990 -46,-990 23,0 23,990 46,990 -23,0 -70,0 -116,990l-24 -1980c0,0 0,0 0,0 -46,-990 -23,990 0,1980 -23,0 -46,990 -46,990 -24,-2970 -117,990 -164,-1980 -23,1980 -210,990 -233,3960 0,0 -23,-990 0,-990 -47,0 -93,-990 -140,0l-23 -1980 -140 3960c-70,-990 -94,-1980 -24,-3960 -163,2970 -116,990 -256,3960l0 -1980c-47,0 -117,1980 -140,990 -94,-2970 -514,0 -770,-2970 46,4950 -117,-1980 -140,990 -24,-990 -47,-1980 0,-2970 -140,990 -210,-1980 -304,990 -23,-990 24,-1980 24,-1980 0,0 -47,990 -47,0 -23,-990 23,-990 47,-990 -140,0 -164,2970 -164,6930 -70,-990 -116,-990 -163,990 -23,-990 -70,-1980 23,-1980 -46,0 -303,-990 -303,990 -23,-990 -70,0 -70,0 -117,0 -117,0 -233,0l23 0c-47,2970 -93,990 -187,990l0 0c-186,-1980 -93,990 -280,-990l0 1980c-23,3960 -163,-1980 -280,-990l47 990c-70,990 -163,-4950 -233,-5940 -24,0 23,-990 46,-990 -163,-1980 -23,1980 -140,2970 -23,-990 24,-2970 -46,-3960 -47,-990 -234,3960 -350,1980 23,990 46,1980 0,2970 -94,0 -234,-3960 -304,-990 0,0 -23,-990 -23,-990 -70,990 -210,990 -257,2970 -70,-5940 -420,2970 -420,-2970l-210 0 0 -990c-140,0 -186,990 -210,1980 -23,0 0,-990 0,-990 -186,-990 -210,-990 -373,1980l-23 -1980c-47,990 -280,-2970 -467,-990 0,0 0,-990 23,-990 -210,1980 -490,-4950 -583,1980l-140 2970c187,990 -23,2970 47,3960 -70,0 -187,-1980 -94,-1980l24 0c23,-3960 -234,-990 -210,-3960 -350,0 -700,-1980 -1027,-1980l23 3960 -116 0c-24,-990 -47,-1980 46,-1980 -46,-1980 -140,990 -140,1980 -163,-990 70,-2970 24,-2970l-70 0 23 0c-47,990 -70,1980 -163,1980 -70,-990 -24,-1980 -47,-1980 0,0 0,0 -47,0l-140 0 47 1980c-70,990 -140,0 -70,1980 -93,-3960 -537,-990 -607,-2970 -93,1980 -186,1980 -280,1980 24,0 47,2970 -46,2970 23,-4950 -164,-1980 -257,-5940 70,1980 -280,990 -163,3960 -70,0 0,-1980 -70,-2970 -187,1980 -420,-1980 -654,-990 0,990 47,1980 -23,2970l-117 -3960c-46,990 -46,3960 -116,1980 23,990 23,990 0,1980 -467,-2970 -934,2970 -1400,-3960 70,990 23,990 -24,1980 24,0 0,1980 0,2970l-186 -2970c-47,1980 -210,0 -234,1980l70 0c-93,2970 117,5940 94,9900 93,-2970 233,4950 396,0 24,990 -23,990 0,1980 24,-990 70,-1980 164,-990l0 0c233,0 350,990 606,1980l-46 -990c46,0 70,990 93,990 70,-2970 -140,0 -93,-2970 70,3960 396,0 466,3960 94,0 -23,-1980 70,-1980l24 990 23 -990c47,0 93,1980 93,2970 -23,0 -46,0 -46,0 70,990 210,0 233,0l-93 -990c233,-990 536,0 770,-1980l-24 -990c187,-1980 140,990 350,0l0 0c24,0 70,-990 117,-990 -47,990 93,1980 23,2970 187,-1980 94,-990 234,-4950l23 1980c47,-990 47,-1980 140,-1980 -70,990 70,1980 -23,3960 210,2970 303,-2970 396,990 94,-3960 -186,-1980 -116,-2970 -47,-990 70,-2970 140,-2970 70,0 116,4950 280,4950 -24,0 -24,0 -24,0 70,990 117,-990 187,0 47,-1980 93,0 117,-2970l-140 990c70,0 163,-3960 303,-1980 0,990 -47,990 -93,1980 46,990 93,0 116,0 -23,2970 -186,990 -280,2970 47,990 164,-1980 117,990 70,-3960 163,990 280,-2970l0 1980c23,0 47,-990 93,-990l-70 1980c94,-1980 164,1980 257,990 -187,0 -47,-1980 -117,-3960 234,-1980 140,4950 374,3960 -24,0 -117,-990 -70,-1980 46,0 116,990 140,1980 163,0 -24,-1980 46,-2970 47,1980 94,-990 164,-1980l0 1980c186,990 46,-3960 210,-1980l-70 2970 93 -990 -23 1980c93,-1980 116,-990 233,-990 -23,-990 23,-2970 93,-2970 47,990 -23,1980 94,1980 -24,990 -47,2970 -117,990 0,990 -23,990 -23,1980 70,990 163,0 186,0 -23,0 -46,0 -46,0l163 -2970c23,990 0,990 -23,1980 23,0 70,-990 116,-990 -23,1980 0,2970 -93,3960l163 -1980c0,990 94,1980 70,1980 94,990 234,-2970 350,-1980 0,0 24,-990 47,-990 117,0 210,1980 350,0l70 2970c117,-990 -93,-2970 70,-3960 117,-990 47,1980 93,2970 70,-990 164,-3960 280,-1980 0,990 -23,990 -70,990zm1307 -990c-23,0 -70,1980 -93,990 23,-2970 46,-1980 93,-990zm1983 -4950c-23,990 -46,0 -70,0 0,-990 24,0 70,0zm5507 -12870c0,0 0,0 0,0 -70,-990 -47,0 0,0zm117 990c0,-990 0,-990 0,0 0,0 -24,0 -47,0 -23,0 0,0 47,0zm-12554 0l0 0c-23,1980 0,990 0,0z"/>
   <path class="fil0" d="M11130 21780c0,0 0,-990 0,-990 -23,0 -23,0 0,990z"/>
   <path class="fil0" d="M7257 25740c0,0 0,0 0,0 0,0 0,0 0,0l0 0z"/>
   <path class="fil0" d="M15167 22770c-24,0 -47,-990 -47,-990 0,0 23,990 47,990z"/>
   <path class="fil0" d="M17593 3960l-70 0c47,0 47,0 70,990 0,-990 -23,-990 0,-990z"/>
   <path class="fil0" d="M18247 14850c0,0 23,0 23,0l0 -990c-47,0 -70,990 -23,990z"/>
   <path class="fil0" d="M17663 9900c0,1980 47,990 117,990 0,0 0,0 0,0 0,-2970 -70,-1980 -117,-990z"/>
   <path class="fil0" d="M17780 9900c23,0 23,0 47,0 0,0 -24,0 -47,0z"/>
   <path class="fil0" d="M17127 5940c23,0 23,-1980 23,-990 23,-2970 -163,1980 -23,990z"/>
   <polygon class="fil0" points="17710,14850 17687,12870 17663,14850 "/>
   <path class="fil0" d="M17290 13860l93 990c0,0 0,-990 24,-990 -47,-990 -117,-990 -117,0z"/>
   <path class="fil0" d="M17407 12870c23,0 46,0 70,0 -24,0 -47,0 -70,0z"/>
   <polygon class="fil0" points="17593,15840 17570,14850 17500,14850 "/>
   <path class="fil0" d="M16403 12870l-93 990c0,990 23,990 47,990 23,-990 46,-990 46,-1980z"/>
   <path class="fil0" d="M16660 18810c-23,0 -23,-990 -47,-990l0 1980 47 -990z"/>
   <path class="fil0" d="M16403 18810c0,990 -140,1980 -23,1980 23,-990 117,-990 23,-1980z"/>
   <polygon class="fil0" points="15027,15840 15050,15840 15050,11880 "/>
   <path class="fil0" d="M13813 25740c117,990 24,-1980 117,-990 23,-990 -70,-990 -47,-1980 -70,0 -93,0 -70,2970z"/>
   <path class="fil0" d="M13883 21780c0,0 24,0 24,-990 0,990 -24,990 -24,990z"/>
   <polygon class="fil0" points="187,4950 117,4950 163,5940 "/>
   <path class="fil0" d="M47 7920l0 -1980 -47 1980c23,0 47,0 47,0z"/>
   <path class="fil0" d="M9567 28710l0 0c0,-990 -24,-990 -47,-990l47 990z"/>
   <polygon class="fil0" points="8633,26730 8633,26730 8610,23760 "/>
   <path class="fil0" d="M7840 29700c23,0 70,0 93,0 -70,0 -116,-2970 -93,0z"/>
  </g>
  <rect class="fil1" x="889" y="10192" width="18040" height="5589"/>
 </g>
</svg>
