<?xml version="1.0" encoding="UTF-8"?>
<!DOCTYPE svg PUBLIC "-//W3C//DTD SVG 1.1//EN" "http://www.w3.org/Graphics/SVG/1.1/DTD/svg11.dtd">
<!-- Creator: CorelDRAW X7 -->
<svg xmlns="http://www.w3.org/2000/svg" xml:space="preserve" width="100%" height="100%" version="1.1" style="shape-rendering:geometricPrecision; text-rendering:geometricPrecision; image-rendering:optimizeQuality; fill-rule:evenodd; clip-rule:evenodd"
viewBox="0 0 21000 5600"
 xmlns:xlink="http://www.w3.org/1999/xlink"
 data-name="Layer 1">
 <defs>
  <style type="text/css">
   <![CDATA[
    .fil4 {fill:#1DA4B4}
    .fil10 {fill:#4064A5}
    .fil6 {fill:#934C94}
    .fil9 {fill:#99C320}
    .fil3 {fill:#C6D114}
    .fil12 {fill:#E42383}
    .fil2 {fill:#E6538D}
    .fil8 {fill:#EA7CA5}
    .fil11 {fill:#F09511}
    .fil5 {fill:#F5B90A}
    .fil7 {fill:#F9EC17}
    .fil13 {fill:#FEFEFE;fill-rule:nonzero}
    .fil1 {fill:#373435;fill-opacity:0.200000}
    .fil0 {fill:#373435;fill-rule:nonzero;fill-opacity:0.200000}
   ]]>
  </style>
 </defs>
 <g id="Layer_x0020_1">
  <metadata id="CorelCorpID_0Corel-Layer"/>
  <path class="fil0" d="M2558 5558l255 -649 -129 0 -197 525 -196 -525 -130 0 255 649 142 0zm16476 21c86,0 152,-19 200,-58 47,-39 71,-92 71,-159 0,-25 -5,-48 -13,-69 -8,-21 -20,-38 -34,-52 -14,-13 -30,-25 -48,-36 -19,-10 -38,-19 -58,-25 -21,-6 -41,-12 -61,-17 -20,-5 -40,-9 -58,-13 -18,-4 -35,-8 -49,-13 -14,-4 -25,-9 -34,-16 -8,-6 -12,-14 -12,-22 0,-15 6,-26 17,-35 12,-8 29,-12 53,-12 33,0 66,6 100,17 33,12 63,28 90,50l91 -120c-70,-60 -158,-90 -264,-90 -40,0 -77,5 -110,16 -33,12 -61,27 -82,46 -21,19 -38,41 -49,66 -12,24 -18,51 -18,78 0,27 5,51 13,72 8,22 20,39 34,53 14,13 30,25 49,36 18,10 38,18 58,25 20,6 41,11 61,16 20,4 39,9 58,13 18,4 35,8 49,12 14,4 25,10 34,17 8,6 12,14 12,24 0,16 -8,29 -25,38 -16,10 -39,15 -67,15 -42,0 -81,-8 -116,-24 -36,-15 -66,-36 -92,-61l-88 125c72,69 168,103 288,103zm-933 -21l0 -649 -167 0 0 649 167 0zm-790 0l-245 -649 -210 0 -244 649 189 0 32 -93 256 0 33 93 189 0zm-267 -239l-166 0 83 -245 83 245zm-1054 239l0 -649 -233 0 -136 352 -136 -352 -232 0 0 649 167 0 0 -422 164 422 74 0 164 -422 0 422 168 0zm-1651 0l-133 -238c16,-6 32,-14 46,-25 15,-10 28,-23 41,-38 13,-16 24,-35 31,-58 8,-22 12,-47 12,-74 0,-62 -21,-114 -61,-155 -40,-41 -95,-61 -165,-61l-325 0 0 649 167 0 0 -218 86 0 109 218 192 0zm-255 -364l-132 0 0 -139 132 0c23,0 42,6 58,18 15,13 23,30 23,51 0,22 -7,39 -23,51 -15,13 -35,19 -58,19zm-971 364l0 -146 -309 0 0 -110 302 0 0 -146 -302 0 0 -101 309 0 0 -146 -476 0 0 649 476 0zm-1344 0l245 -649 -189 0 -161 468 -160 -468 -189 0 244 649 210 0zm-1076 0l0 -649 -167 0 0 649 167 0zm-1036 0l245 -649 -189 0 -161 468 -160 -468 -189 0 244 649 210 0zm-2047 0l-255 -649 -143 0 -255 649 130 0 48 -125 297 0 48 125 130 0zm-210 -225l-233 0 116 -309 117 309zm-957 225l0 -649 -114 0 0 265 -338 0 0 -265 -114 0 0 649 114 0 0 -283 338 0 0 283 114 0zm-1280 0l0 -649 -114 0 0 450 -332 -450 -117 0 0 649 114 0 0 -463 339 463 110 0zm-1257 0l0 -100 -331 0 0 -180 324 0 0 -101 -324 0 0 -168 331 0 0 -100 -445 0 0 649 445 0z"/>
  <path class="fil1" d="M1461 3604l102 318 796 -1c56,-117 112,-321 154,-448l950 -2820c56,-168 122,-296 163,-470l-919 0c-85,364 -510,1479 -645,1952 -38,134 -24,198 -115,265 -11,-126 -82,-350 -127,-443l-197 13c-14,-128 -83,-316 -123,-453 -66,-224 -363,-1174 -377,-1334l-918 0 534 1714c91,299 185,548 278,863 68,231 200,663 296,844l137 0 11 0zm7297 -159l18 0 1249 0 154 477 891 -1c-3,-159 -156,-556 -210,-740 -75,-255 -165,-468 -233,-718l-396 -1251c-42,-107 -21,-101 -147,-111 -52,-130 -105,-311 -150,-447 -54,-161 -90,-335 -163,-471l-823 0c-14,160 -809,2411 -931,2775 -62,186 -301,818 -305,963l887 0c51,-96 148,-346 159,-476zm822 -1330l43 0c-16,156 82,325 117,475l-666 8c28,-134 236,-772 317,-832 11,135 66,222 95,349l94 0zm4500 666l0 1140c1024,0 855,186 855,-697 0,-528 0,-1056 0,-1584l-138 17 4 1122 -721 2 16 -1124 701 0 12 -1474 -856 0 0 2597 127 1zm-10074 -2c0,1363 -134,1140 475,1142 78,0 184,7 258,4 133,-6 144,1 157,-128l-3 -2157 -132 -14 -3 1152 -727 2 1 -1131c225,0 529,32 729,-23l5 -1443 -771 0c-210,39 -116,211 -116,855 0,581 0,1161 0,1742l127 -1zm1301 -2303l713 1 6 2246 -723 3 4 -2250 -129 -10 0 3455c893,0 1298,15 1851,-367 197,-136 417,-373 525,-583 254,-491 165,-470 253,-896l127 10c0,-665 -355,-1220 -741,-1510 -454,-340 -790,-387 -1388,-392l-500 0 2 293zm720 2272l133 0 0 -1678c212,4 351,81 485,180 168,123 220,207 307,398l-95 26c16,188 184,525 -94,917 -195,274 -354,355 -730,443l-6 -286zm948 -1105l660 -275c102,183 154,474 142,704 -145,-4 -524,19 -633,-1 -119,-21 -77,-48 -104,-202 -14,-83 -40,-148 -65,-226zm6159 -894c184,200 415,608 360,1001l-728 8c37,229 -90,402 -215,507 -174,145 -261,160 -564,169l-12 654 -723 4c86,850 -188,836 325,829 701,-9 570,127 570,-602 860,0 1704,-865 1482,-1894 -109,-502 -261,-553 -405,-767l-90 63 -167 -155c-65,-51 -104,-90 -179,-137 -134,-84 -268,-144 -439,-195 -85,-26 -182,-42 -285,-51l-962 0 0 2914 150 -5 19 -646 716 -12 2 -1364c289,0 562,202 619,489 31,154 -28,219 158,199 70,-207 -84,-373 -155,-498 67,-124 400,-443 523,-511zm4093 6c196,161 401,615 367,1004l-697 2c-30,-306 -82,-302 -187,-501 118,-149 363,-368 517,-505zm-360 1009c0,133 -7,203 -53,298 -43,90 -96,161 -167,213 -189,139 -249,157 -572,157l0 -1362c389,0 657,318 666,696l126 -2zm-792 684l-7 641 -691 3 -7 -644 705 0zm-728 646c0,961 -76,833 316,827 701,-9 571,127 571,-602 955,0 1718,-970 1490,-1902 -119,-488 -274,-552 -413,-759l-84 63c-177,-198 -494,-411 -791,-487 -113,-29 -247,-44 -390,-51l-826 0 0 2914 127 -3zm3968 -979c34,105 104,379 150,475l-665 5c12,-163 236,-622 253,-829 191,141 -10,329 262,349zm-541 478l-281 851 1257 1c11,130 108,381 158,476l887 0c-11,-143 -359,-1192 -431,-1406 -82,-245 -139,-449 -221,-697 -79,-236 -181,-488 -235,-717l-93 12 297 978 -802 2 -297 -965 802 -15 -314 -930 -828 0 -622 1849c-109,328 -208,595 -316,919 -68,202 -293,790 -297,970l887 0c55,-115 137,-329 168,-477l-456 0 287 -851 450 0z"/>
  <path class="fil2" d="M1623 1810l471 1610c-192,0 -485,-36 -633,24l102 318 796 -1c56,-117 112,-321 154,-448l950 -2820c56,-168 122,-296 163,-470l-919 0c-85,364 -510,1479 -645,1952 -38,134 -24,198 -115,265 -11,-126 -82,-350 -127,-443l-197 13z"/>
  <path class="fil3" d="M18493 3284l-456 0 287 -851 450 0 26 2c12,-163 236,-622 253,-829 191,141 -10,329 262,349l-5 -22 -297 -965 802 -15 -314 -930 -828 0 -622 1849c-109,328 -208,595 -316,919 -68,202 -293,790 -297,970l887 0c55,-115 137,-329 168,-477z"/>
  <path class="fil4" d="M8758 3285l-440 -1 287 -850 452 0 17 4c28,-134 236,-772 317,-832 11,135 66,222 95,349l94 0c-13,-254 -229,-704 -287,-990l795 -1 -4 -23c-52,-130 -105,-311 -150,-447 -54,-161 -90,-335 -163,-471l-823 0c-14,160 -809,2411 -931,2775 -62,186 -301,818 -305,963l887 0c51,-96 148,-346 159,-476z"/>
  <path class="fil3" d="M7807 1915l-30 -3c-145,-4 -524,19 -633,-1 -119,-21 -77,-48 -104,-202 -14,-83 -40,-148 -65,-226l-23 5 -95 26c16,188 184,525 -94,917 -195,274 -354,355 -730,443l-6 -286 -1 -25 -723 3 4 -2250 -129 -10 0 3455c893,0 1298,15 1851,-367 197,-136 417,-373 525,-583 254,-491 165,-470 253,-896z"/>
  <path class="fil5" d="M11252 2932l19 -646 716 -12 2 -1364c289,0 562,202 619,489 31,154 -28,219 158,199 70,-207 -84,-373 -155,-498 67,-124 400,-443 523,-511l0 -28 -167 -155c-65,-51 -104,-90 -179,-137 -134,-84 -268,-144 -439,-195 -85,-26 -182,-42 -285,-51l-962 0 0 2914 150 -5z"/>
  <path class="fil2" d="M15347 2934l30 -2 -7 -644 705 0 0 -16 0 -1362c389,0 657,318 666,696l126 -2 30 -3c-30,-306 -82,-302 -187,-501 118,-149 363,-368 517,-505l0 -34c-177,-198 -494,-411 -791,-487 -113,-29 -247,-44 -390,-51l-826 0 0 2914 127 -3z"/>
  <path class="fil4" d="M19310 1933l5 22c34,105 104,379 150,475l-665 5 -26 -2 -281 851 1257 1c11,130 108,381 158,476l887 0c-11,-143 -359,-1192 -431,-1406 -82,-245 -139,-449 -221,-697 -79,-236 -181,-488 -235,-717l-93 12 297 978 -802 2z"/>
  <path class="fil6" d="M9623 1955c-16,156 82,325 117,475l-666 8 -17 -4 -281 851 1249 0 154 477 891 -1c-3,-159 -156,-556 -210,-740 -75,-255 -165,-468 -233,-718l-396 -1251c-42,-107 -21,-101 -147,-111l4 23 305 974 -770 17z"/>
  <path class="fil6" d="M17227 561l0 34c196,161 401,615 367,1004l-697 2 -30 3c0,133 -7,203 -53,298 -43,90 -96,161 -167,213 -189,139 -249,157 -572,157l0 16 -7 641 -691 3 -30 2c0,961 -76,833 316,827 701,-9 571,127 571,-602 955,0 1718,-970 1490,-1902 -119,-488 -274,-552 -413,-759l-84 63z"/>
  <path class="fil2" d="M13134 561l0 28c184,200 415,608 360,1001l-728 8c37,229 -90,402 -215,507 -174,145 -261,160 -564,169l-12 654 -723 4c86,850 -188,836 325,829 701,-9 570,127 570,-602 860,0 1704,-865 1482,-1894 -109,-502 -261,-553 -405,-767l-90 63z"/>
  <path class="fil5" d="M5307 316l713 1 6 2246 1 25 133 0 0 -1678c212,4 351,81 485,180 168,123 220,207 307,398l23 -5 660 -275c102,183 154,474 142,704l30 3 127 10c0,-665 -355,-1220 -741,-1510 -454,-340 -790,-387 -1388,-392l-500 0 2 293z"/>
  <path class="fil5" d="M1450 3444c-45,-382 -492,-1363 -477,-1631l650 -3c-14,-128 -83,-316 -123,-453 -66,-224 -363,-1174 -377,-1334l-918 0 534 1714c91,299 185,548 278,863 68,231 200,663 296,844l137 0z"/>
  <polygon class="fil7" points="6026,2563 6020,317 5307,316 5303,2566 "/>
  <path class="fil3" d="M4006 2619l25 1 1 -1131c225,0 529,32 729,-23l5 -1443 -771 0c-210,39 -116,211 -116,855 0,581 0,1161 0,1742l127 -1z"/>
  <polygon class="fil5" points="14080,2621 14096,1497 14797,1497 14809,23 13953,23 13953,2620 "/>
  <path class="fil4" d="M4031 2620l-25 -1c0,1363 -134,1140 475,1142 78,0 184,7 258,4 133,-6 144,1 157,-128l-3 -2157 -132 -14 -3 1152 -727 2z"/>
  <path class="fil3" d="M14080 2621l0 1140c1024,0 855,186 855,-697 0,-528 0,-1056 0,-1584l-138 17 4 1122 -721 2z"/>
  <path class="fil8" d="M1450 3444l11 0c148,-60 441,-24 633,-24l-471 -1610 -650 3c-15,268 432,1249 477,1631z"/>
  <path class="fil9" d="M4031 2620l727 -2 3 -1152c-200,55 -504,23 -729,23l-1 1131z"/>
  <polygon class="fil7" points="14080,2621 14801,2619 14797,1497 14096,1497 "/>
  <path class="fil10" d="M9580 1955l43 0 770 -17 -305 -974 -795 1c58,286 274,736 287,990z"/>
  <polygon class="fil9" points="19310,1933 20112,1931 19815,953 19013,968 "/>
  <path class="fil11" d="M12766 1598l728 -8c55,-393 -176,-801 -360,-1001 -123,68 -456,387 -523,511 71,125 225,291 155,498z"/>
  <path class="fil12" d="M16897 1601l697 -2c34,-389 -171,-843 -367,-1004 -154,137 -399,356 -517,505 105,199 157,195 187,501z"/>
  <polygon class="fil11" points="11252,2932 11975,2928 11987,2274 11271,2286 "/>
  <polygon class="fil12" points="15377,2932 16068,2929 16075,2288 15370,2288 "/>
  <path class="fil7" d="M6975 1483c25,78 51,143 65,226 27,154 -15,181 104,202 109,20 488,-3 633,1 12,-230 -40,-521 -142,-704l-660 275z"/>
  <polygon class="fil10" points="8758,3285 8776,3285 9057,2434 8605,2434 8318,3284 "/>
  <polygon class="fil9" points="18493,3284 18774,2433 18324,2433 18037,3284 "/>
  <polygon class="fil13" points="2558,5498 2813,4849 2684,4849 2487,5374 2291,4849 2161,4849 2416,5498 "/>
  <polygon class="fil13" points="3906,5498 3906,5398 3575,5398 3575,5218 3899,5218 3899,5117 3575,5117 3575,4949 3906,4949 3906,4849 3461,4849 3461,5498 "/>
  <polygon class="fil13" points="5163,5498 5163,4849 5049,4849 5049,5299 4717,4849 4600,4849 4600,5498 4714,5498 4714,5035 5053,5498 "/>
  <polygon class="fil13" points="6443,5498 6443,4849 6329,4849 6329,5114 5991,5114 5991,4849 5877,4849 5877,5498 5991,5498 5991,5215 6329,5215 6329,5498 "/>
  <path class="fil13" d="M7610 5498l-255 -649 -143 0 -255 649 130 0 48 -125 297 0 48 125 130 0zm-210 -225l-233 0 116 -309 117 309z"/>
  <polygon class="fil13" points="9657,5498 9902,4849 9713,4849 9552,5317 9392,4849 9203,4849 9447,5498 "/>
  <polygon class="fil13" points="10693,5498 10693,4849 10526,4849 10526,5498 "/>
  <polygon class="fil13" points="11769,5498 12014,4849 11825,4849 11664,5317 11504,4849 11315,4849 11559,5498 "/>
  <polygon class="fil13" points="13113,5498 13113,5352 12804,5352 12804,5242 13106,5242 13106,5096 12804,5096 12804,4995 13113,4995 13113,4849 12637,4849 12637,5498 "/>
  <path class="fil13" d="M14339 5498l-133 -238c16,-6 32,-14 46,-25 15,-10 28,-23 41,-38 13,-16 24,-35 31,-58 8,-22 12,-47 12,-74 0,-62 -21,-114 -61,-155 -40,-41 -95,-61 -165,-61l-325 0 0 649 167 0 0 -218 86 0 109 218 192 0zm-255 -364l-132 0 0 -139 132 0c23,0 42,6 58,18 15,13 23,30 23,51 0,22 -7,39 -23,51 -15,13 -35,19 -58,19z"/>
  <polygon class="fil13" points="15990,5498 15990,4849 15757,4849 15621,5201 15485,4849 15253,4849 15253,5498 15420,5498 15420,5076 15584,5498 15658,5498 15822,5076 15822,5498 "/>
  <path class="fil13" d="M17311 5498l-245 -649 -210 0 -244 649 189 0 32 -93 256 0 33 93 189 0zm-267 -239l-166 0 83 -245 83 245z"/>
  <polygon class="fil13" points="18101,5498 18101,4849 17934,4849 17934,5498 "/>
  <path class="fil13" d="M19034 5519c86,0 152,-19 200,-58 47,-39 71,-92 71,-159 0,-25 -5,-48 -13,-69 -8,-21 -20,-38 -34,-52 -14,-13 -30,-25 -48,-36 -19,-10 -38,-19 -58,-25 -21,-6 -41,-12 -61,-17 -20,-5 -40,-9 -58,-13 -18,-4 -35,-8 -49,-13 -14,-4 -25,-9 -34,-16 -8,-6 -12,-14 -12,-22 0,-15 6,-26 17,-35 12,-8 29,-12 53,-12 33,0 66,6 100,17 33,12 63,28 90,50l91 -120c-70,-60 -158,-90 -264,-90 -40,0 -77,5 -110,16 -33,12 -61,27 -82,46 -21,19 -38,41 -49,66 -12,24 -18,51 -18,78 0,27 5,51 13,72 8,22 20,39 34,53 14,13 30,25 49,36 18,10 38,18 58,25 20,6 41,11 61,16 20,4 39,9 58,13 18,4 35,8 49,12 14,4 25,10 34,17 8,6 12,14 12,24 0,16 -8,29 -25,38 -16,10 -39,15 -67,15 -42,0 -81,-8 -116,-24 -36,-15 -66,-36 -92,-61l-88 125c72,69 168,103 288,103z"/>
 </g>
</svg>
