<?xml version="1.0" encoding="UTF-8"?>
<!DOCTYPE svg PUBLIC "-//W3C//DTD SVG 1.1//EN" "http://www.w3.org/Graphics/SVG/1.1/DTD/svg11.dtd">
<!-- Creator: CorelDRAW X7 -->
<svg xmlns="http://www.w3.org/2000/svg" xml:space="preserve" width="100%" height="100%" version="1.1" style="shape-rendering:geometricPrecision; text-rendering:geometricPrecision; image-rendering:optimizeQuality; fill-rule:evenodd; clip-rule:evenodd"
viewBox="0 0 21000 21000"
 xmlns:xlink="http://www.w3.org/1999/xlink"
 data-name="Layer 1">
 <defs>
  <style type="text/css">
   <![CDATA[
    .fil0 {fill:white}
   ]]>
  </style>
 </defs>
 <g id="Layer_x0020_1">
  <metadata id="CorelCorpID_0Corel-Layer"/>
  <path class="fil0" d="M6006 280l8988 0c3150,0 5726,2576 5726,5726l0 8988c0,3150 -2576,5726 -5726,5726l-2169 0 0 -9366 2849 0 248 -2725 -3097 0 0 -2230c42,-576 522,-1023 1100,-1023 88,0 177,12 263,32 503,13 1006,97 1486,248l620 -2850c-948,-255 -1926,-385 -2908,-385 -186,0 -375,6 -561,14 -60,-3 -121,-5 -182,-5 -1121,0 -2168,560 -2791,1492 -422,711 -646,1525 -646,2353 0,166 10,332 27,496l0 1858 -1982 0 0 2725 1982 0 0 9366 -3227 0c-3150,0 -5726,-2576 -5726,-5726l0 -8988c0,-3150 2576,-5726 5726,-5726z"/>
 </g>
 <g id="Layer_x0020_1_0">
  <metadata id="CorelCorpID_1Corel-Layer"/>
 </g>
</svg>
