<?xml version="1.0" encoding="UTF-8"?>
<!DOCTYPE svg PUBLIC "-//W3C//DTD SVG 1.1//EN" "http://www.w3.org/Graphics/SVG/1.1/DTD/svg11.dtd">
<!-- Creator: CorelDRAW X7 -->
<svg xmlns="http://www.w3.org/2000/svg" xml:space="preserve" width="100%" height="100%" version="1.1" style="shape-rendering:geometricPrecision; text-rendering:geometricPrecision; image-rendering:optimizeQuality; fill-rule:evenodd; clip-rule:evenodd"
viewBox="0 0 21000 21000"
 xmlns:xlink="http://www.w3.org/1999/xlink"
 data-name="Layer 1">
 <defs>
  <style type="text/css">
   <![CDATA[
    .fil0 {fill:white}
   ]]>
  </style>
 </defs>
 <g id="Layer_x0020_1">
  <metadata id="CorelCorpID_0Corel-Layer"/>
  <path class="fil0" d="M7251 8629l1982 0 0 -1858c-17,-164 -27,-330 -27,-496 0,-828 224,-1642 646,-2353 623,-932 1670,-1492 2791,-1492 61,0 122,2 182,5 186,-8 375,-14 561,-14 982,0 1960,130 2908,385l-620 2850c-480,-151 -983,-235 -1486,-248 -86,-20 -175,-32 -263,-32 -578,0 -1058,447 -1100,1023l0 2230 3097 0 -248 2725 -2849 0 0 9382 -3592 0 0 -9382 -1982 0 0 -2725z"/>
 </g>
</svg>
