<?xml version="1.0" encoding="UTF-8"?>
<!DOCTYPE svg PUBLIC "-//W3C//DTD SVG 1.1//EN" "http://www.w3.org/Graphics/SVG/1.1/DTD/svg11.dtd">
<!-- Creator: CorelDRAW X7 -->
<svg xmlns="http://www.w3.org/2000/svg" xml:space="preserve" width="100%" height="100%" version="1.1" style="shape-rendering:geometricPrecision; text-rendering:geometricPrecision; image-rendering:optimizeQuality; fill-rule:evenodd; clip-rule:evenodd"
viewBox="0 0 21000 15200"
 xmlns:xlink="http://www.w3.org/1999/xlink"
 data-name="Layer 1"
 xmlns:dc="http://purl.org/dc/elements/1.1/"
 xmlns:cc="http://creativecommons.org/ns#"
 xmlns:rdf="http://www.w3.org/1999/02/22-rdf-syntax-ns#"
 xmlns:svg="http://www.w3.org/2000/svg"
 xmlns:sodipodi="http://sodipodi.sourceforge.net/DTD/sodipodi-0.dtd"
 xmlns:inkscape="http://www.inkscape.org/namespaces/inkscape">
 <defs>
  <style type="text/css">
   <![CDATA[
    .fil0 {fill:#934C94}
   ]]>
  </style>
 </defs>
 <g id="Layer_x0020_1">
  <metadata id="CorelCorpID_0Corel-Layer"/>
  <path class="fil0" d="M18312 46c-628,20 -1223,285 -1660,736 -2724,2730 -5832,5831 -8694,8694l-3743 -3112c-440,-387 -1007,-600 -1593,-600 -1333,0 -2414,1081 -2414,2414 0,737 337,1434 914,1892l5431 4526c434,361 981,558 1544,558 641,0 1257,-255 1710,-709 3214,-3221 7036,-7030 10259,-10259 464,-454 726,-1077 726,-1726 0,-1333 -1081,-2414 -2414,-2414 -22,0 -44,0 -66,0l0 0z" display="inline"/>
 </g>
</svg>
