<?xml version="1.0" encoding="UTF-8"?>
<!DOCTYPE svg PUBLIC "-//W3C//DTD SVG 1.1//EN" "http://www.w3.org/Graphics/SVG/1.1/DTD/svg11.dtd">
<!-- Creator: CorelDRAW X7 -->
<svg xmlns="http://www.w3.org/2000/svg" xml:space="preserve" width="100%" height="100%" version="1.1" style="shape-rendering:geometricPrecision; text-rendering:geometricPrecision; image-rendering:optimizeQuality; fill-rule:evenodd; clip-rule:evenodd"
viewBox="0 0 21000 29700"
 xmlns:xlink="http://www.w3.org/1999/xlink"
 data-name="Layer 1">
 <defs>
  <style type="text/css">
   <![CDATA[
    .fil0 {fill:white}
   ]]>
  </style>
 </defs>
 <g id="Layer_x0020_1">
  <metadata id="CorelCorpID_0Corel-Layer"/>
  <path class="fil0" d="M3273 9900l3168 0 0 -2970c-27,-262 -43,-528 -43,-793 0,-1323 358,-2624 1033,-3761 995,-1489 2669,-2384 4461,-2384 97,0 195,3 291,8 297,-14 599,-23 897,-23 1569,0 3133,207 4647,616l-990 4555c-768,-242 -1571,-376 -2376,-396 -137,-33 -279,-51 -420,-51 -924,0 -1691,714 -1758,1635l0 3564 4950 0 -396 4356 -4554 0 0 15444 -5742 0 0 -15444 -3168 0 0 -4356z"/>
 </g>
</svg>
