<?xml version="1.0" encoding="UTF-8"?>
<!DOCTYPE svg PUBLIC "-//W3C//DTD SVG 1.1//EN" "http://www.w3.org/Graphics/SVG/1.1/DTD/svg11.dtd">
<!-- Creator: CorelDRAW X7 -->
<svg xmlns="http://www.w3.org/2000/svg" xml:space="preserve" width="100%" height="100%" version="1.1" style="shape-rendering:geometricPrecision; text-rendering:geometricPrecision; image-rendering:optimizeQuality; fill-rule:evenodd; clip-rule:evenodd"
viewBox="0 0 21000 21000"
 xmlns:xlink="http://www.w3.org/1999/xlink"
 data-name="Layer 1">
 <defs>
  <style type="text/css">
   <![CDATA[
    .fil0 {fill:white}
   ]]>
  </style>
 </defs>
 <g id="Layer_x0020_1">
  <metadata id="CorelCorpID_0Corel-Layer"/>
  <g>
   <path class="fil0" d="M10500 1892c2804,0 3136,11 4243,61 1024,47 1580,218 1950,361 456,168 870,437 1208,786 349,338 618,752 786,1209 144,370 315,926 362,1949 50,1108 61,1440 61,4243 0,2804 -11,3136 -61,4243 -47,1024 -218,1580 -362,1950 -353,915 -1077,1640 -1993,1993 -370,144 -926,314 -1949,361 -1107,51 -1440,61 -4243,61 -2804,0 -3136,-10 -4243,-61 -1024,-47 -1580,-218 -1950,-361 -456,-168 -870,-437 -1209,-786 -349,-339 -617,-752 -785,-1209 -144,-370 -315,-926 -362,-1950 -50,-1107 -61,-1439 -61,-4243 0,-2803 11,-3135 61,-4243 47,-1023 218,-1579 362,-1949 168,-456 436,-870 785,-1209 339,-349 753,-618 1209,-786 370,-143 926,-314 1950,-361 1107,-50 1439,-61 4243,-61l-2 2zm2 -1894c-2852,0 -3210,12 -4330,63 -1120,52 -1882,231 -2549,490 -700,264 -1336,678 -1860,1211 -534,524 -948,1161 -1212,1861 -259,667 -437,1431 -487,2549 -51,1117 -64,1476 -64,4328 0,2852 12,3209 63,4329 52,1120 229,1881 488,2548 264,700 678,1336 1212,1860 524,534 1160,948 1860,1212 667,259 1431,437 2549,488 1117,50 1477,63 4329,63 2852,0 3209,-12 4329,-63 1120,-52 1880,-229 2547,-488 1410,-545 2528,-1662 3072,-3072 260,-667 437,-1431 488,-2549 51,-1117 64,-1477 64,-4329 0,-2852 -12,-3209 -64,-4329 -51,-1120 -228,-1880 -488,-2547 -263,-700 -678,-1336 -1212,-1860 -523,-534 -1160,-949 -1860,-1212 -667,-259 -1431,-437 -2549,-488 -1117,-50 -1476,-63 -4328,-63l0 0 2 -2z"/>
  </g>
  <path class="fil0" d="M10500 5108c0,0 0,0 0,0 -2978,0 -5393,2415 -5393,5392 0,2978 2415,5393 5393,5393 2977,0 5392,-2415 5392,-5393 0,0 0,0 0,0l0 0c0,-2978 -2414,-5392 -5392,-5392l0 0zm0 8893c-1933,0 -3501,-1568 -3501,-3501 0,-1933 1568,-3501 3501,-3501 1933,0 3501,1568 3501,3501 0,1933 -1568,3501 -3501,3501l0 0z"/>
  <circle class="fil0" cx="16105" cy="4895" r="1260"/>
 </g>
</svg>
