<?xml version="1.0" encoding="UTF-8"?>
<!DOCTYPE svg PUBLIC "-//W3C//DTD SVG 1.1//EN" "http://www.w3.org/Graphics/SVG/1.1/DTD/svg11.dtd">
<!-- Creator: CorelDRAW X7 -->
<svg xmlns="http://www.w3.org/2000/svg" xml:space="preserve" width="100%" height="100%" version="1.1" style="shape-rendering:geometricPrecision; text-rendering:geometricPrecision; image-rendering:optimizeQuality; fill-rule:evenodd; clip-rule:evenodd"
viewBox="0 0 21000 13400"
 xmlns:xlink="http://www.w3.org/1999/xlink">
 <defs>
  <style type="text/css">
   <![CDATA[
    .fil0 {fill:white}
   ]]>
  </style>
 </defs>
 <g id="Layer_x0020_1">
  <metadata id="CorelCorpID_0Corel-Layer"/>
  <path class="fil0" d="M20583 11986c-2653,-3858 -5552,-7631 -8799,-11267 -789,-883 -1698,-923 -2503,-17 -3264,3650 -6217,7460 -8874,11372 -707,1041 842,1773 1461,896 2350,-3336 4959,-6574 7803,-9722l16 -19 51 -57c131,-147 406,-227 696,-240l2 0 27 -1 3 0 27 -1 3 0 27 0 3 0 28 0 3 0 27 1 3 0 26 1 3 0c290,13 565,93 695,240l51 57 17 19c2707,2996 5173,6085 7457,9240 100,139 257,355 366,491 593,748 2102,57 1381,-993z"/>
 </g>
</svg>
