<?xml version="1.0" encoding="UTF-8"?>
<!DOCTYPE svg PUBLIC "-//W3C//DTD SVG 1.1//EN" "http://www.w3.org/Graphics/SVG/1.1/DTD/svg11.dtd">
<!-- Creator: CorelDRAW X7 -->
<svg xmlns="http://www.w3.org/2000/svg" xml:space="preserve" width="100%" height="100%" version="1.1" style="shape-rendering:geometricPrecision; text-rendering:geometricPrecision; image-rendering:optimizeQuality; fill-rule:evenodd; clip-rule:evenodd"
viewBox="0 0 21000 25100"
 xmlns:xlink="http://www.w3.org/1999/xlink"
 enable-background="new 169.5 172 7 11">
 <defs>
  <style type="text/css">
   <![CDATA[
    .fil0 {fill:#FEFEFE}
   ]]>
  </style>
 </defs>
 <g id="Layer_x0020_1">
  <metadata id="CorelCorpID_0Corel-Layer"/>
  <path class="fil0" d="M1916 197c6315,3387 12478,7109 18403,11312l28 21 89 61c223,157 346,487 367,835l0 4 2 32 0 4 1 33 0 2 0 33 0 5 0 32 0 3 -1 33 0 4 -2 31 0 3c-21,349 -144,680 -367,836l-89 62 -28 20c-5999,4255 -12239,8015 -18637,11438 -753,404 -2425,-1164 -804,-2060 5104,-2825 10062,-5960 14880,-9378l30 -20 87 -62c225,-156 346,-487 368,-836l0 -3 1 -31 0 -4 2 -33 0 -3 0 -32 0 -5 0 -33 0 -2 -2 -33 0 -4 -1 -32 0 -4c-22,-348 -143,-678 -368,-835l-87 -61 -30 -21c-4586,-3253 -9314,-6217 -14144,-8962 -212,-119 -432,-232 -640,-362 -1300,-810 -414,-2719 942,-1988z"/>
 </g>
</svg>
