<?xml version="1.0" encoding="UTF-8"?>
<!DOCTYPE svg PUBLIC "-//W3C//DTD SVG 1.1//EN" "http://www.w3.org/Graphics/SVG/1.1/DTD/svg11.dtd">
<!-- Creator: CorelDRAW X7 -->
<svg xmlns="http://www.w3.org/2000/svg" xml:space="preserve" width="100%" height="100%" version="1.1" style="shape-rendering:geometricPrecision; text-rendering:geometricPrecision; image-rendering:optimizeQuality; fill-rule:evenodd; clip-rule:evenodd"
viewBox="0 0 21000 21000"
 xmlns:xlink="http://www.w3.org/1999/xlink">
 <defs>
  <style type="text/css">
   <![CDATA[
    .fil0 {fill:white}
   ]]>
  </style>
 </defs>
 <g id="Layer_x0020_1">
  <metadata id="CorelCorpID_0Corel-Layer"/>
  <path class="fil0" d="M6006 280l8988 0c3150,0 5726,2576 5726,5726l0 8988c0,3150 -2576,5726 -5726,5726l-8988 0c-3150,0 -5726,-2576 -5726,-5726l0 -8988c0,-3150 2576,-5726 5726,-5726zm4494 4515l0 0c3138,0 5705,2567 5705,5705l0 0c0,3138 -2567,5705 -5705,5705l0 0c-3138,0 -5705,-2567 -5705,-5705l0 0c0,-3138 2567,-5705 5705,-5705zm0 2305l0 0c1870,0 3400,1530 3400,3400l0 0c0,1870 -1530,3400 -3400,3400l0 0c-1870,0 -3400,-1530 -3400,-3400l0 0c0,-1870 1530,-3400 3400,-3400zm6709 -4482c-585,0 -1060,475 -1060,1060 0,585 475,1060 1060,1060 586,0 1060,-475 1060,-1060 0,-585 -474,-1060 -1060,-1060z"/>
 </g>
</svg>
