<?xml version="1.0" encoding="utf-8"?>
<!-- Generator: Adobe Illustrator 16.0.0, SVG Export Plug-In . SVG Version: 6.00 Build 0)  -->
<!DOCTYPE svg PUBLIC "-//W3C//DTD SVG 1.1//EN" "http://www.w3.org/Graphics/SVG/1.1/DTD/svg11.dtd">
<svg version="1.1" id="Layer_1" xmlns:xml="http://www.w3.org/XML/1998/namespace"
	 xmlns="http://www.w3.org/2000/svg" xmlns:xlink="http://www.w3.org/1999/xlink" x="0px" y="0px" width="595.279px"
	 height="841.891px" viewBox="0 0 595.279 841.891" enable-background="new 0 0 595.279 841.891" xml:space="preserve">
<g id="Layer_x0020_1">
	<path fill="#FFFFFF" d="M297.64,207.154c240.04,0,261.753,18.454,261.753,41.245c0,22.791-22.762,41.272-261.753,41.272
		c-238.99,0-261.753-18.482-261.753-41.272C35.887,225.608,57.601,207.154,297.64,207.154z M297.64,379.672
		c271.788,0,296.393,18.482,296.393,41.273s-25.767,41.272-296.393,41.272S1.247,443.736,1.247,420.945
		S25.852,379.672,297.64,379.672z M297.64,552.219c240.04,0,261.753,18.482,261.753,41.272c0,22.791-22.762,41.245-261.753,41.245
		c-238.99,0-261.753-18.454-261.753-41.245C35.887,570.701,57.601,552.219,297.64,552.219z"/>
</g>
</svg>
