<?xml version="1.0" encoding="UTF-8"?>
<!DOCTYPE svg PUBLIC "-//W3C//DTD SVG 1.1//EN" "http://www.w3.org/Graphics/SVG/1.1/DTD/svg11.dtd">
<!-- Creator: CorelDRAW X7 -->
<svg xmlns="http://www.w3.org/2000/svg" xml:space="preserve" width="100%" height="100%" version="1.1" style="shape-rendering:geometricPrecision; text-rendering:geometricPrecision; image-rendering:optimizeQuality; fill-rule:evenodd; clip-rule:evenodd"
viewBox="0 0 21000 15100"
 xmlns:xlink="http://www.w3.org/1999/xlink"
 xmlns:xml="http://www.w3.org/XML/1998/namespace"
 enable-background="new 54 65 20 14">
 <defs>
  <style type="text/css">
   <![CDATA[
    .fil0 {fill:#934C94}
   ]]>
  </style>
 </defs>
 <g id="Layer_x0020_1">
  <metadata id="CorelCorpID_0Corel-Layer"/>
  <path class="fil0" d="M10500 8c8468,0 9234,651 9234,1455 0,804 -803,1456 -9234,1456 -8431,0 -9234,-652 -9234,-1456 0,-804 766,-1455 9234,-1455zm0 6086c9588,0 10456,652 10456,1456 0,804 -909,1456 -10456,1456 -9547,0 -10456,-652 -10456,-1456 0,-804 868,-1456 10456,-1456zm0 6087c8468,0 9234,652 9234,1456 0,804 -803,1455 -9234,1455 -8431,0 -9234,-651 -9234,-1455 0,-804 766,-1456 9234,-1456z"/>
 </g>
</svg>
