<?xml version="1.0" encoding="UTF-8"?>
<!DOCTYPE svg PUBLIC "-//W3C//DTD SVG 1.1//EN" "http://www.w3.org/Graphics/SVG/1.1/DTD/svg11.dtd">
<!-- Creator: CorelDRAW X7 -->
<svg xmlns="http://www.w3.org/2000/svg" xml:space="preserve" width="100%" height="100%" version="1.1" style="shape-rendering:geometricPrecision; text-rendering:geometricPrecision; image-rendering:optimizeQuality; fill-rule:evenodd; clip-rule:evenodd"
viewBox="0 0 21000 13400"
 xmlns:xlink="http://www.w3.org/1999/xlink"
 data-name="Layer 1">
 <defs>
  <style type="text/css">
   <![CDATA[
    .fil0 {fill:#FEFEFE}
   ]]>
  </style>
 </defs>
 <g id="Layer_x0020_1">
  <metadata id="CorelCorpID_0Corel-Layer"/>
  <g id="_298281448">
   <path class="fil0" d="M20583 1414c-2653,3858 -5552,7631 -8799,11267 -788,883 -1698,924 -2503,17 -3263,-3650 -6216,-7459 -8874,-11372 -706,-1041 843,-1773 1461,-895 2351,3335 4959,6573 7803,9721l17 19 51 57c130,147 406,227 695,240l3 0 27 2 3 0 27 0 3 0 27 1 3 0 27 -1 3 0 27 0 3 0 27 -2 3 0c289,-13 565,-93 695,-240l51 -57 17 -19c2706,-2996 5173,-6085 7456,-9240 100,-139 258,-355 366,-491 594,-748 2103,-57 1381,993z"/>
   <circle class="fil0" cx="10534" cy="4754" r="1455"/>
  </g>
 </g>
 <g id="Layer_x0020_1_0">
  <metadata id="CorelCorpID_1Corel-Layer"/>
 </g>
</svg>
