<?xml version="1.0" encoding="utf-8"?>
<!-- Generator: Adobe Illustrator 19.2.1, SVG Export Plug-In . SVG Version: 6.00 Build 0)  -->
<svg version="1.1" id="Layer_1" xmlns="http://www.w3.org/2000/svg" xmlns:xlink="http://www.w3.org/1999/xlink" x="0px" y="0px"
	 viewBox="0 0 18.5 15" style="enable-background:new 0 0 18.5 15;" xml:space="preserve">
<style type="text/css">
	.st0{fill:#007092;}
</style>
<path class="st0" d="M18.5,1.8c-0.7,0.3-1.4,0.5-2.2,0.6c0.8-0.5,1.4-1.2,1.7-2.1c-0.7,0.4-1.5,0.7-2.4,0.9C14.9,0.5,13.9,0,12.8,0
	C10.7,0,9,1.7,9,3.8c0,0.3,0,0.6,0.1,0.9C5.9,4.5,3.2,3,1.3,0.7C1,1.3,0.8,1.9,0.8,2.6c0,1.3,0.7,2.5,1.7,3.2
	c-0.6,0-1.2-0.2-1.7-0.5v0c0,1.8,1.3,3.4,3,3.7c-0.3,0.1-0.7,0.1-1,0.1c-0.2,0-0.5,0-0.7-0.1c0.5,1.5,1.9,2.6,3.5,2.6
	c-1.3,1-2.9,1.6-4.7,1.6c-0.3,0-0.6,0-0.9-0.1C1.7,14.4,3.7,15,5.8,15c7,0,10.8-5.8,10.8-10.8c0-0.2,0-0.3,0-0.5
	C17.3,3.2,18,2.5,18.5,1.8"/>
</svg>
